<svg width="148" height="62" viewBox="0 0 148 62" fill="none" xmlns="http://www.w3.org/2000/svg">
<path d="M73.9945 20.4544C74.599 20.4459 75.113 20.3329 75.1046 19.7115V19.6183C75.113 18.9997 74.599 18.8867 73.9945 18.8783C73.3873 18.8867 72.8732 18.9997 72.8817 19.6183V19.7115C72.8732 20.3329 73.3873 20.4459 73.9945 20.4544Z" fill="#C9CED3"/>
<path d="M51.8951 19.2059C51.8951 19.0251 51.7511 18.8811 51.5703 18.8811H49.7654V19.5279H51.5703C51.6607 19.5279 51.7369 19.4968 51.7991 19.4347C51.864 19.3697 51.8951 19.2935 51.8951 19.2059Z" fill="#C9CED3"/>
<path d="M62.055 18.8726L62.5748 19.994H61.5325L62.055 18.8726Z" fill="#C9CED3"/>
<path d="M85.2444 18.8726L85.7643 19.994H84.7219L85.2444 18.8726Z" fill="#C9CED3"/>
<path d="M48.3212 42.4855L47.553 40.8279L46.7805 42.4855H48.3212Z" fill="#C9CED3"/>
<path d="M66.4508 42.0095C66.4508 42.5732 66.1293 43.0367 65.5615 43.0367H63.1648V40.9824H65.5615C66.1293 40.9824 66.4508 41.4417 66.4508 42.0095Z" fill="#C9CED3"/>
<path d="M72.5218 40.8279L73.2901 42.4855H71.7493L72.5218 40.8279Z" fill="#C9CED3"/>
<path d="M81.8583 40.8405C82.1255 40.8405 82.3384 41.0535 82.3384 41.3207C82.3384 41.4501 82.2925 41.5629 82.1965 41.6589C82.1046 41.7508 81.9919 41.7967 81.8583 41.7967H79.1902V40.8405H81.8583Z" fill="#C9CED3"/>
<path d="M90.6852 42.0095C90.6852 42.5732 90.3632 43.0367 89.7952 43.0367H87.3982V40.9824H89.7952C90.3632 40.9824 90.6852 41.4417 90.6852 42.0095Z" fill="#C9CED3"/>
<path d="M38.1766 31.5472L35.392 25.118H30.6145V35.8333H34.0952V30.0457L36.6068 35.8333H39.7191L42.258 30.0457V35.8333H45.7251V25.118H41.0977L38.1766 31.5472Z" fill="#C9CED3"/>
<path d="M59.9309 35.8333V33.1715H52.2459V31.7792H59.617V29.1721H52.2459V27.7934H59.8354V25.118H48.6423V35.8333H59.9309Z" fill="#C9CED3"/>
<path d="M62.8673 33.9359C63.932 35.3146 65.8293 35.9971 68.1089 35.9971C69.8208 35.9971 71.0756 35.6494 71.9498 35.098C72.1002 35.0031 72.2394 34.9021 72.3677 34.7959L72.4633 35.8333H75.398V29.486H68.2727V31.7929H72.0811C72.0643 31.9021 72.0061 32.0735 71.9224 32.2368C71.8702 32.3388 71.808 32.4376 71.7398 32.5163C71.344 32.9804 70.2929 33.3899 68.9279 33.3899C67.5083 33.3899 66.5937 33.0214 66.1023 32.4481C65.7747 32.0249 65.5836 31.4243 65.5836 30.5234C65.5836 29.5816 65.7747 28.94 66.1433 28.5169C66.6756 27.9163 67.5765 27.6569 68.9006 27.6569C70.0882 27.6569 70.9072 27.9299 71.2894 28.2712C71.5351 28.4759 71.7262 28.7626 71.7671 28.9537H75.3025C75.2975 28.8277 75.2794 28.6737 75.249 28.5098C75.197 28.2297 75.1091 27.9202 74.9885 27.6706C74.1422 25.9506 72.1766 24.9269 68.8324 24.9269C65.9249 24.9269 63.9729 25.8141 62.8946 27.1519C62.1848 28.0664 61.8572 29.213 61.8572 30.4961C61.8572 31.9157 62.2394 33.1306 62.8673 33.9359Z" fill="#C9CED3"/>
<path d="M66.0276 30.5234C66.0276 29.6327 66.2097 29.1176 66.4769 28.8099C66.8788 28.3576 67.6121 28.1008 68.9007 28.1008C70.0465 28.1008 70.7321 28.3686 70.9938 28.6023L70.9995 28.6073L71.0053 28.6122C71.0953 28.6872 71.1776 28.7796 71.2398 28.8697C71.3013 28.9587 71.3259 29.0205 71.332 29.0421H67.8289V32.2368H71.3948C71.2671 32.3811 70.993 32.5612 70.5575 32.7059C70.124 32.8499 69.5677 32.946 68.928 32.946C67.5792 32.946 66.8206 32.5969 66.4467 32.1675C66.2023 31.8471 66.0276 31.3557 66.0276 30.5234Z" fill="#C9CED3"/>
<path d="M84.6715 29.0662L83.6545 31.0078H85.6323L84.6715 29.0662Z" fill="#C9CED3"/>
<path fill-rule="evenodd" clip-rule="evenodd" d="M87.5072 33.854L88.4492 35.8333H92.3942L86.9882 25.118H82.5795L76.8601 35.8333H80.7231L81.7195 33.854H87.5072ZM82.9207 31.4516L84.2721 28.8718L84.6816 27.889L85.0638 28.8581L86.3472 31.4516H82.9207Z" fill="#C9CED3"/>
<path fill-rule="evenodd" clip-rule="evenodd" d="M115.99 54.3871H115.984C115.908 54.3871 115.832 54.3867 115.756 54.3859V54.3871H32.2643C24.8967 54.3871 18.3248 50.9802 14.0381 45.656H26.3395V44.0968H12.8855C10.8784 41.1328 9.5335 37.6839 9.0631 33.9624H26.3395V32.4033H8.9186C8.8911 31.939 8.8772 31.4711 8.8772 31C8.8772 27.9134 9.4751 24.9666 10.5615 22.2688H26.3395V20.7097H11.2569C12.9097 17.3419 15.3484 14.4297 18.3341 12.2124H102.059C103.103 11.4372 104.214 10.7469 105.381 10.1517C105.066 10.3121 104.756 10.4793 104.45 10.6532H20.7248C24.1297 8.71802 28.0679 7.61292 32.2642 7.61292H115.756V7.61402C115.834 7.61325 115.912 7.61292 115.99 7.61292C128.906 7.61292 139.377 18.0836 139.377 31C139.377 43.9163 128.906 54.3871 115.99 54.3871ZM124.686 41.9688C125.733 38.8142 126.358 35.0673 126.358 31C126.358 27.2083 125.814 23.695 124.893 20.6804C124.78 20.3123 124.662 19.9517 124.539 19.5989C124.333 19.0113 124.112 18.4455 123.878 17.9033C123.562 17.1711 123.222 16.4819 122.861 15.8403C121.155 12.813 119.209 11.1826 117.393 10.6337V17.9033H122.169C122.573 18.7654 122.942 19.7041 123.268 20.7097H117.393V29.5967H124.773C124.79 30.0592 124.799 30.5271 124.799 31C124.799 31.4729 124.79 31.9408 124.773 32.4032H117.393V41.2903H123.267C122.942 42.2959 122.573 43.2346 122.169 44.0967H117.393V51.3664C119.209 50.8176 121.155 49.1871 122.861 46.1597C123.222 45.5181 123.563 44.8289 123.878 44.0967C124.169 43.4227 124.439 42.7122 124.686 41.9688ZM127.824 20.7097C128.573 23.4187 129.036 26.4225 129.141 29.5967H136.523C136.306 26.3747 135.347 23.356 133.817 20.7097H127.824ZM131.866 17.9033H126.907C126.007 15.5449 124.871 13.4935 123.559 11.8561C126.819 13.146 129.67 15.2441 131.866 17.9033ZM114.587 10.6334V17.9033H108.101C108.417 17.1711 108.757 16.4819 109.119 15.8403C110.824 12.8125 112.771 11.1819 114.587 10.6334ZM108.42 11.856C107.108 13.4934 105.973 15.5448 105.073 17.9033H100.113C102.309 15.244 105.161 13.1458 108.42 11.856ZM104.155 20.7097H95.1753V22.2688H97.3483C96.2922 24.5189 95.6318 26.9913 95.4564 29.5967H102.838C102.944 26.4225 103.406 23.4187 104.155 20.7097ZM114.587 20.7097H107.078C106.276 23.3419 105.763 26.3529 105.647 29.5967H114.587V20.7097ZM129.141 32.4032C129.036 35.5774 128.573 38.5812 127.824 41.2903H133.817C135.347 38.644 136.306 35.6252 136.523 32.4032H129.141ZM107.078 41.2903C106.276 38.6581 105.763 35.647 105.647 32.4032H114.587V41.2903H107.078ZM104.155 41.2903C103.406 38.5812 102.944 35.5774 102.838 32.4032H95.4564C95.6734 35.6252 96.632 38.644 98.1627 41.2903H104.155ZM126.907 44.0967C126.007 46.4551 124.871 48.5064 123.56 50.1438C126.819 48.8539 129.67 46.7558 131.866 44.0967H126.907ZM108.101 44.0967H114.587V51.3667C112.771 50.8182 110.824 49.1876 109.119 46.1597C108.757 45.5181 108.417 44.8289 108.101 44.0967ZM105.073 44.0967L95.1753 44.0968V45.6559H101.541C103.493 47.5805 105.827 49.118 108.42 50.144C107.108 48.5066 105.973 46.4552 105.073 44.0967ZM73.9942 17.675C72.565 17.6778 71.3956 18.0902 71.4013 19.5279V19.8047C71.3956 21.2396 72.565 21.6548 73.9942 21.6576C75.4206 21.6548 76.59 21.2396 76.5843 19.8047V19.5279C76.5843 18.093 75.4234 17.675 73.9942 17.675ZM29.5922 17.7682V21.5644H31.0723V17.7682H29.5922ZM35.5605 19.7793L33.894 17.7682H31.8575V21.5644H33.3376V19.2455L35.3769 21.5644H37.0434V17.7682H35.5605V19.7793ZM40.7972 18.9771V21.5701H39.3172V18.9771H37.5575V17.7739H42.5569V18.9771H40.7972ZM43.0541 21.5701H47.4971V20.5956H44.5341V20.1098H47.4971V19.2313H44.5341V18.7455H47.4971V17.7739H43.0541V21.5701ZM48.2851 21.5672V17.771H51.9429C52.7253 17.7626 53.3891 18.4207 53.3778 19.2059C53.3778 19.4912 53.3015 19.751 53.149 19.9827C52.9993 20.2114 52.7988 20.3866 52.5502 20.5024L53.3778 21.5672H51.8017L51.0871 20.6408H49.7652V21.5672H48.2851ZM57.5412 19.7793L55.8747 17.7682H53.8382V21.5644H55.3183V19.2455L57.3576 21.5644H59.0241V17.7682H57.5412V19.7793ZM60.8036 21.5701H59.1371L61.1736 17.7739H62.9333L64.9698 21.5701H63.3033L63.0039 20.9204H61.103L60.8036 21.5701ZM67.2294 21.5701V18.9771H68.9891V17.7739H63.9897V18.9771H65.7494V21.5701H67.2294ZM69.4862 21.5644V17.7682H70.9663V21.5644H69.4862ZM79.0643 17.7682L80.7308 19.7793V17.7682H82.2137V21.5644H80.5472L78.5079 19.2455V21.5644H77.0278V17.7682H79.0643ZM82.3267 21.5701H83.9931L84.2926 20.9204H86.1933L86.4933 21.5701H88.1593L86.1233 17.7739H84.3632L82.3267 21.5701ZM88.2753 21.5644V17.7682H89.7553V20.3611H92.7183V21.5644H88.2753ZM33.4272 40.498C32.7466 40.498 31.9115 40.5983 31.9115 41.045C31.9115 41.2914 32.5921 41.3248 33.4731 41.3665L33.4828 41.367C35.048 41.4463 37.2393 41.5573 37.2352 42.9615C37.2352 44.5649 35.398 44.9449 33.4272 44.9449C31.4606 44.9407 29.828 44.7027 29.6192 42.9615H31.9115C32.162 43.3958 32.7424 43.5085 33.4272 43.5085C34.1078 43.5085 34.9429 43.3958 34.9429 42.9615C34.9429 42.7152 34.2623 42.6776 33.3813 42.6359L33.3715 42.6354C31.8063 42.5561 29.615 42.4451 29.6192 41.045C29.6192 39.4417 31.4564 39.0575 33.4272 39.0575C35.3938 39.07 37.0264 39.2913 37.2352 41.045H34.9429C34.6923 40.6024 34.112 40.498 33.4272 40.498ZM42.0912 40.9824V44.8154H39.9033V40.9824H37.302V39.2037H44.6925V40.9824H42.0912ZM43.2394 44.8154H45.7029L46.1455 43.8551H48.9556L49.3982 44.8154H51.8617L48.8512 39.2037H46.2499L43.2394 44.8154ZM55.0434 39.1953L57.5069 42.1682V39.1953H59.699V44.8071H57.2355L54.2208 41.3791V44.8071H52.0329V39.1953H55.0434ZM60.9766 39.2037V44.8154H65.9705C67.5112 44.8363 68.6553 43.5336 68.6427 42.0095C68.6553 40.4772 67.5112 39.1828 65.9705 39.2037H60.9766ZM70.672 44.8154H68.2085L71.219 39.2037H73.8203L76.8307 44.8154H74.3672L73.9246 43.8551H71.1146L70.672 44.8154ZM77.0019 39.1995V44.8113H79.1899V43.4417H81.144L82.2003 44.8113H84.5302L83.3068 43.2371C83.6743 43.0659 83.9707 42.8071 84.192 42.4688C84.4175 42.1265 84.5302 41.7423 84.5302 41.3206C84.5469 40.1598 83.5657 39.187 82.4091 39.1995H77.0019ZM85.2108 44.8154V39.2037H90.2043C91.7453 39.1828 92.8893 40.4772 92.8773 42.0095C92.8893 43.5336 91.7453 44.8363 90.2043 44.8154H85.2108ZM46.1687 36.2772H41.8138V32.1626L40.0088 36.2772H36.3153L34.5388 32.1837V36.2772H30.1703V24.6741H35.6832L38.186 30.4527L40.8115 24.6741H46.1687V36.2772ZM60.3749 36.2772H48.1985V24.6741H60.2794V28.2373H52.6899V28.7282H60.061V32.2231H52.6899V32.7276H60.3749V36.2772ZM75.8419 36.2772H72.0583L71.9948 35.5883C71.0463 36.127 69.7623 36.441 68.1088 36.441C65.7566 36.441 63.6982 35.7375 62.5165 34.2082C61.8135 33.3061 61.4132 31.9874 61.4132 30.4961C61.4132 29.1374 61.7608 27.8885 62.5438 26.8797L62.5463 26.8764L62.5489 26.8733C63.7383 25.3977 65.8401 24.483 68.8323 24.483C72.2522 24.483 74.4319 25.534 75.3867 27.4746L75.3875 27.4761L75.3882 27.4776C75.6102 27.9374 75.7303 28.5449 75.7459 28.9359L75.7502 29.0421H75.8419V36.2772ZM81.9931 34.2979L80.9967 36.2772H76.1201L82.3133 24.6741H87.2623L93.1153 36.2772H88.1683L87.2273 34.2979H81.9931ZM29.5358 50.5672H93.0703V49.008H29.5358V50.5672Z" fill="#C9CED3"/>
<path fill-rule="evenodd" clip-rule="evenodd" d="M32.2644 2H115.99C132.006 2 144.99 14.9837 144.99 31C144.99 47.0163 132.006 60 115.99 60H32.2644C16.2481 60 3.2644 47.0163 3.2644 31C3.2644 14.9837 16.2481 2 32.2644 2ZM32.2644 4.8065C17.7981 4.8065 6.0709 16.5337 6.0709 31C6.0709 45.4663 17.7981 57.1936 32.2644 57.1936H115.99C130.456 57.1936 142.183 45.4663 142.183 31C142.183 16.5337 130.456 4.8065 115.99 4.8065H32.2644Z" fill="#C9CED3"/>
</svg>
