<svg width="122" height="62" viewBox="0 0 122 62" fill="none" xmlns="http://www.w3.org/2000/svg">
<path d="M3.5741 35.8828H7.01804V52.7695H3.5741V35.8828Z" fill="#C9CED3"/>
<path d="M9.01553 46.9837C9.01326 45.7709 9.37086 44.5845 10.0431 43.5748C10.7153 42.5652 11.6719 41.7777 12.7919 41.312C13.9117 40.8462 15.1447 40.7232 16.3346 40.9584C17.5245 41.1937 18.6179 41.7766 19.4763 42.6335C20.3348 43.4903 20.9198 44.5826 21.1572 45.7721C21.3948 46.9615 21.2741 48.1947 20.8104 49.3156C20.3467 50.4363 19.561 51.3944 18.5526 52.0685C17.5443 52.7427 16.3587 53.1024 15.1458 53.1024C14.3391 53.1117 13.5388 52.9598 12.7916 52.6556C12.0445 52.3516 11.3655 51.9014 10.7946 51.3315C10.2237 50.7617 9.77221 50.0836 9.46672 49.3369C9.16123 48.5904 9.00784 47.7904 9.01553 46.9837ZM17.809 46.9837C17.7955 46.4601 17.6279 45.9521 17.3271 45.5233C17.0263 45.0944 16.6058 44.7639 16.1181 44.5728C15.6304 44.3817 15.0972 44.3388 14.5852 44.4492C14.0732 44.5595 13.6052 44.8185 13.2395 45.1935C12.8739 45.5686 12.627 46.0432 12.5297 46.5579C12.4324 47.0725 12.489 47.6045 12.6924 48.0871C12.8959 48.5697 13.2372 48.9817 13.6735 49.2714C14.1099 49.5611 14.622 49.7158 15.1458 49.7159C15.5041 49.726 15.8606 49.6617 16.1929 49.527C16.5251 49.3923 16.8259 49.1902 17.0762 48.9335C17.3264 48.6767 17.5208 48.371 17.6468 48.0354C17.773 47.6998 17.8282 47.3418 17.809 46.9837Z" fill="#C9CED3"/>
<path d="M35.1206 41.1979V52.1955C35.1206 56.0872 32.0784 57.7288 29.0019 57.7288C27.9201 57.8093 26.8369 57.5905 25.871 57.0964C24.9052 56.6024 24.0939 55.852 23.5261 54.9278L26.4879 53.2173C26.7229 53.6909 27.0947 54.0832 27.5552 54.3431C28.0157 54.6031 28.5437 54.7188 29.0708 54.6751C29.4175 54.733 29.773 54.7104 30.1098 54.609C30.4465 54.5077 30.7554 54.3305 31.0128 54.0909C31.27 53.8513 31.4689 53.5557 31.594 53.2271C31.7191 52.8985 31.767 52.5456 31.734 52.1955V51.1279C31.3292 51.6261 30.8125 52.0218 30.2262 52.283C29.6399 52.5443 29.0002 52.6638 28.359 52.6318C26.8002 52.6318 25.3052 52.0125 24.2029 50.9103C23.1006 49.808 22.4813 48.313 22.4813 46.7541C22.4813 45.1952 23.1006 43.7003 24.2029 42.598C25.3052 41.4958 26.8002 40.8765 28.359 40.8765C28.9998 40.8472 29.6386 40.9679 30.2245 41.2289C30.8105 41.4901 31.3274 41.8843 31.734 42.3803V41.2323L35.1206 41.1979ZM31.734 46.7541C31.757 46.1959 31.6123 45.6434 31.3189 45.1679C31.0253 44.6924 30.5963 44.3155 30.0869 44.0859C29.5775 43.8561 29.011 43.784 28.4603 43.8789C27.9096 43.9736 27.3999 44.2309 26.9966 44.6176C26.5933 45.0045 26.3149 45.503 26.1972 46.0492C26.0794 46.5954 26.1278 47.1645 26.336 47.683C26.5443 48.2016 26.9028 48.6459 27.3656 48.9591C27.8284 49.2724 28.3742 49.4399 28.933 49.4404C29.2978 49.4662 29.6638 49.4154 30.0076 49.291C30.3516 49.1666 30.6656 48.9718 30.9295 48.7186C31.1933 48.4655 31.4013 48.1599 31.5399 47.8216C31.6785 47.4833 31.7446 47.1197 31.734 46.7541Z" fill="#C9CED3"/>
<path d="M37.1066 46.9837C37.1043 45.7709 37.4619 44.5845 38.1341 43.5748C38.8064 42.5652 39.763 41.7777 40.8829 41.312C42.0028 40.8462 43.2357 40.7232 44.4256 40.9584C45.6156 41.1937 46.7089 41.7766 47.5675 42.6335C48.4259 43.4903 49.0108 44.5826 49.2484 45.7721C49.4858 46.9615 49.3651 48.1947 48.9014 49.3156C48.4378 50.4363 47.6521 51.3944 46.6438 52.0685C45.6354 52.7427 44.4497 53.1024 43.2368 53.1024C42.4302 53.1117 41.6298 52.9598 40.8826 52.6556C40.1355 52.3516 39.4565 51.9014 38.8856 51.3315C38.3148 50.7617 37.8632 50.0836 37.5577 49.3369C37.2522 48.5904 37.0988 47.7904 37.1066 46.9837ZM45.9001 46.9837C45.8865 46.4601 45.7189 45.9521 45.4181 45.5233C45.1174 45.0944 44.6969 44.7639 44.2091 44.5728C43.7215 44.3817 43.1883 44.3388 42.6763 44.4492C42.1642 44.5595 41.6962 44.8185 41.3305 45.1935C40.9649 45.5686 40.718 46.0432 40.6207 46.5579C40.5234 47.0725 40.5801 47.6045 40.7834 48.0871C40.987 48.5697 41.3282 48.9817 41.7645 49.2714C42.2009 49.5611 42.713 49.7158 43.2368 49.7159C43.5933 49.7227 43.9473 49.6561 44.2768 49.5199C44.6063 49.3838 44.9043 49.1812 45.152 48.9248C45.3998 48.6686 45.592 48.3638 45.7168 48.0298C45.8416 47.6959 45.8961 47.3397 45.8772 46.9837H45.9001Z" fill="#C9CED3"/>
<path d="M50.9628 38.0983C50.9628 37.6851 51.0853 37.2812 51.3148 36.9376C51.5445 36.594 51.8708 36.3262 52.2525 36.1681C52.6343 36.0099 53.0544 35.9686 53.4597 36.0492C53.865 36.1298 54.2372 36.3288 54.5295 36.6209C54.8217 36.9132 55.0206 37.2854 55.1012 37.6907C55.1819 38.096 55.1405 38.5162 54.9824 38.8979C54.8243 39.2796 54.5565 39.606 54.2129 39.8356C53.8692 40.0651 53.4654 40.1876 53.052 40.1876C52.4989 40.1847 51.9692 39.9636 51.578 39.5724C51.1868 39.1813 50.9658 38.6516 50.9628 38.0983ZM51.3186 41.1979H54.7625V52.7695H51.3186V41.1979Z" fill="#C9CED3"/>
<path d="M69.7779 46.9837C69.8196 47.7486 69.7097 48.5143 69.4544 49.2365C69.199 49.9588 68.8034 50.6234 68.2901 51.1921C67.7769 51.7608 67.1563 52.2224 66.4639 52.5502C65.7716 52.8781 65.0213 53.0658 64.2561 53.1025C63.6138 53.1333 62.9724 53.0229 62.3774 52.7789C61.7823 52.5349 61.248 52.1634 60.8122 51.6905V57.4304H57.3683V41.1979H60.8122V42.2885C61.248 41.8156 61.7823 41.4441 62.3774 41.2001C62.9724 40.9561 63.6138 40.8457 64.2561 40.8765C65.0203 40.9132 65.7696 41.1005 66.4611 41.4277C67.1527 41.755 67.7729 42.2155 68.2859 42.7829C68.799 43.3504 69.1948 44.0136 69.4509 44.7345C69.707 45.4554 69.8181 46.2198 69.7779 46.9837ZM66.334 46.9837C66.3204 46.4449 66.1489 45.922 65.841 45.4796C65.5331 45.0373 65.1022 44.6948 64.6017 44.495C64.1012 44.295 63.553 44.2463 63.0251 44.3548C62.4971 44.4633 62.0126 44.7243 61.6315 45.1054C61.2503 45.4865 60.9895 45.971 60.8809 46.4989C60.7725 47.0269 60.8212 47.5751 61.0211 48.0756C61.221 48.576 61.5634 49.007 62.0058 49.3148C62.4481 49.6228 62.9711 49.7942 63.5099 49.8078C63.8859 49.8317 64.2627 49.7748 64.615 49.6411C64.9672 49.5073 65.2867 49.2996 65.552 49.0322C65.8173 48.7646 66.0224 48.4434 66.1533 48.0901C66.2841 47.7369 66.338 47.3596 66.311 46.9837H66.334Z" fill="#C9CED3"/>
<path d="M80.5001 49.3027C80.5001 51.966 78.2042 53.1024 75.6786 53.1024C74.6697 53.1918 73.6571 52.9771 72.7713 52.4861C71.8855 51.9951 71.1668 51.2502 70.7079 50.3473L73.7156 48.6369C73.8377 49.0545 74.099 49.4177 74.4561 49.6662C74.8133 49.9147 75.2446 50.0336 75.6786 50.0029C76.5167 50.0029 76.9299 49.7389 76.9299 49.2797C76.9299 48.0054 71.19 48.6828 71.19 44.6878C71.19 42.1622 73.3253 40.888 75.7819 40.888C76.6885 40.8605 77.5859 41.0758 78.3812 41.5118C79.1765 41.9478 79.8406 42.5886 80.305 43.3676L77.2858 44.9519C77.1525 44.6487 76.9339 44.3907 76.6567 44.2093C76.3795 44.028 76.0558 43.9309 75.7245 43.9301C75.1276 43.9301 74.7603 44.1597 74.7603 44.5845C74.8062 45.9046 80.5001 45.0207 80.5001 49.3027Z" fill="#C9CED3"/>
<path d="M93.1738 41.1979V52.7695H89.7297V51.6905C89.3292 52.1699 88.8208 52.5478 88.2461 52.7932C87.6716 53.0387 87.0469 53.1445 86.4235 53.1025C84.1276 53.1025 82.0957 51.4378 82.0957 48.3039V41.1979H85.5396V47.7988C85.5094 48.0801 85.5422 48.3646 85.6355 48.6317C85.7289 48.8988 85.8805 49.1417 86.0795 49.3429C86.2784 49.5441 86.5197 49.6983 86.7857 49.7946C87.0517 49.891 87.3359 49.9267 87.6175 49.8996C88.8803 49.8996 89.7643 49.1649 89.7643 47.5233V41.1979H93.1738Z" fill="#C9CED3"/>
<path d="M113.08 45.6749V52.7694H109.636V45.9734C109.636 44.8255 109.073 44.0677 107.971 44.0677C106.869 44.0677 106.157 44.8828 106.157 46.2489V52.7694H102.713V45.9734C102.713 44.8255 102.162 44.0677 101.049 44.0677C99.9353 44.0677 99.2465 44.8828 99.2465 46.2489V52.7694H95.8026V41.1978H99.2465V42.2655C99.6065 41.7939 100.079 41.4198 100.62 41.1773C101.161 40.9347 101.755 40.8312 102.346 40.8764C102.94 40.8475 103.531 40.9731 104.062 41.2405C104.594 41.5081 105.046 41.9087 105.377 42.4032C105.761 41.8862 106.27 41.4749 106.856 41.2079C107.442 40.941 108.087 40.8268 108.729 40.8764C111.346 40.8764 113.08 42.782 113.08 45.6749Z" fill="#C9CED3"/>
<path d="M116.019 41.129C117.439 41.129 118.59 39.9777 118.59 38.5575C118.59 37.1373 117.439 35.9861 116.019 35.9861C114.598 35.9861 113.447 37.1373 113.447 38.5575C113.447 39.9777 114.598 41.129 116.019 41.129Z" fill="#C9CED3"/>
<path d="M42.548 27.1238C49.1987 27.1238 54.5902 21.7322 54.5902 15.0814C54.5902 8.4307 49.1987 3.03918 42.548 3.03918C35.8972 3.03918 30.5056 8.4307 30.5056 15.0814C30.5056 21.7322 35.8972 27.1238 42.548 27.1238Z" fill="#C9CED3"/>
<path d="M69.468 27.1238C76.1188 27.1238 81.5102 21.7322 81.5102 15.0814C81.5102 8.4307 76.1188 3.03918 69.468 3.03918C62.8172 3.03918 57.4257 8.4307 57.4257 15.0814C57.4257 21.7322 62.8172 27.1238 69.468 27.1238Z" fill="#C9CED3"/>
<path d="M27.6702 3.03918H3.59717V27.1122H27.6702V3.03918Z" fill="#C9CED3"/>
</svg>
