<svg width="78" height="62" viewBox="0 0 78 62" fill="none" xmlns="http://www.w3.org/2000/svg">
<path d="M25.9949 21.3083C25.9949 21.1508 25.9949 18.8596 25.9949 18.8596H24.6334C24.6334 18.8596 24.6334 21.1153 24.6334 21.1865C24.6334 21.603 24.2474 21.8824 23.5971 21.8824C22.9163 21.8824 22.5455 21.6131 22.5455 21.1813C22.5455 21.1102 22.5455 18.8596 22.5455 18.8596H21.1686C21.1686 18.8596 21.1686 20.9984 21.1686 21.1813C21.1686 22.3904 22.1593 22.9036 23.5412 22.9036C25.0196 22.9036 25.9949 22.3854 25.9949 21.3083Z" fill="#C9CED3"/>
<path d="M30.5803 22.8477V21.7859H28.152V18.8596H26.7751V22.8477H30.5803Z" fill="#C9CED3"/>
<path d="M34.6719 19.8605V18.8596H29.9117V19.8605H31.5932V22.8477H32.9852V19.8605H34.6719Z" fill="#C9CED3"/>
<path d="M36.5023 22.8477V18.8596H35.1052V22.8477H36.5023Z" fill="#C9CED3"/>
<path d="M42.9119 22.8477V18.8596H41.1897L40.1025 21.2525L39.0662 18.8596H37.288V22.8477H38.5835V20.6937L39.5183 22.8477H40.6766L41.6215 20.6937V22.8477H42.9119Z" fill="#C9CED3"/>
<path d="M45.0698 22.111H47.2239L47.5745 22.8477H49.0426L47.0308 18.8596H45.3899L43.2612 22.8477H44.6989L45.0698 22.111ZM46.792 21.2169H45.5169L46.0198 20.2567L46.1722 19.891L46.3145 20.2516L46.792 21.2169Z" fill="#C9CED3"/>
<path d="M53.3608 19.8605V18.8596H48.6008V19.8605H50.2823V22.8477H51.6744V19.8605H53.3608Z" fill="#C9CED3"/>
<path d="M57.9902 22.8477V21.857H55.1309V21.3388H57.8734V20.3685H55.1309V19.8553H57.955V18.8596H53.7897V22.8477H57.9902Z" fill="#C9CED3"/>
<path d="M31.5515 24.9677H30.2357C30.2357 24.9677 29.3771 27.4773 29.3771 27.5383C29.3771 27.4773 28.5744 24.9677 28.5744 24.9677H27.1468C27.1468 24.9677 26.3492 27.4773 26.3492 27.5383C26.3492 27.4773 25.4855 24.9677 25.4855 24.9677H24.0071L25.5008 28.9557H26.9893C26.9893 28.9557 27.792 26.573 27.7971 26.507C27.8022 26.573 28.5998 28.9557 28.5998 28.9557H30.0934L31.5515 24.9677Z" fill="#C9CED3"/>
<path d="M33.3519 28.9557V24.9677H31.9548V28.9557H33.3519Z" fill="#C9CED3"/>
<path d="M38.7862 28.9557V24.9677H37.4856V27.1369L35.5704 24.9677H34.1376V28.9557H35.4484V26.7356L37.4247 28.9557H38.7862Z" fill="#C9CED3"/>
<path d="M44.2286 28.9557V24.9677H42.9281V27.1369L41.0128 24.9677H39.5802V28.9557H40.8909V26.7356L42.8671 28.9557H44.2286Z" fill="#C9CED3"/>
<path d="M49.2241 28.9557V27.965H46.3639V27.4468H49.1072V26.4765H46.3639V25.9634H49.1885V24.9677H45.0226V28.9557H49.2241Z" fill="#C9CED3"/>
<path d="M54.5946 26.1818C54.5946 25.8212 54.5078 25.562 54.3249 25.3741C54.0862 25.1201 53.675 24.9677 53.0446 24.9677H49.8698V28.9557H51.2263V27.5485H52.4608L53.4518 28.9557H54.9656L53.7618 27.33C54.0304 27.2893 54.2495 27.1268 54.3911 26.9338C54.5182 26.7559 54.5946 26.4917 54.5946 26.1818ZM53.274 26.3088C53.274 26.3749 53.2637 26.4562 53.2275 26.5171C53.1769 26.6187 53.0446 26.6594 52.8266 26.6594H51.2313V25.9329H52.8008C53.0147 25.9329 53.1573 25.9684 53.2275 26.1006C53.2637 26.1513 53.274 26.2327 53.274 26.3088Z" fill="#C9CED3"/>
<path d="M26.5678 32.8793C26.5678 32.8141 26.5678 30.9305 26.5678 30.9305H26.0921C26.0921 30.9305 26.0921 32.8064 26.0921 32.8486C26.0921 33.3012 25.6663 33.5583 25.0525 33.5583C24.3275 33.5583 23.9707 33.2821 23.9707 32.8448C23.9707 32.8025 23.9707 30.9305 23.9707 30.9305H23.4912C23.4912 30.9305 23.4912 32.7565 23.4912 32.8294C23.4912 33.6273 24.1127 33.9802 25.0334 33.9802C25.9846 33.9802 26.5678 33.6043 26.5678 32.8793Z" fill="#C9CED3"/>
<path d="M29.9807 33.9419V33.5008H27.9054V30.9305H27.4259V33.9419H29.9807Z" fill="#C9CED3"/>
<path d="M32.7054 31.3678V30.9305H29.506V31.3678H30.864V33.9419H31.3474V31.3678H32.7054Z" fill="#C9CED3"/>
<path d="M36.115 31.7821C36.115 31.5673 36.0689 31.41 35.9884 31.2834C35.8464 31.0724 35.574 30.9305 35.1214 30.9305H33.1727V33.9419H33.6445V32.6721H35.0178L35.8579 33.9419H36.4103L35.5012 32.5915C35.7313 32.5648 35.9116 32.4342 36.0075 32.2655C36.0766 32.1504 36.115 31.9816 36.115 31.7821ZM35.6392 31.8204C35.6392 31.9049 35.6201 32.0085 35.5856 32.0775C35.5242 32.1887 35.3822 32.2463 35.1521 32.2501H33.6483C33.6483 32.2425 33.6483 31.3602 33.6483 31.3602H35.0639C35.3516 31.3602 35.505 31.4292 35.5856 31.5596C35.6201 31.621 35.6392 31.7246 35.6392 31.8204Z" fill="#C9CED3"/>
<path d="M37.4801 33.1977H39.3561L39.7396 33.9419H40.2537L38.7269 30.9305H38.163L36.5863 33.9419H37.0888L37.4801 33.1977ZM39.1565 32.7718H37.6873L38.2972 31.6172L38.4315 31.3372L38.5658 31.6172L39.1565 32.7718Z" fill="#C9CED3"/>
<path d="M45.119 33.6542C45.2379 33.516 45.2916 33.3204 45.2916 33.1094C45.2916 32.91 45.2341 32.7105 45.1151 32.5877C44.9962 32.4727 44.8044 32.3768 44.5934 32.3576C44.7162 32.3384 44.8121 32.2617 44.8773 32.1811C44.9809 32.0621 45.0422 31.8704 45.0422 31.6786C45.0422 31.4752 44.9809 31.2911 44.8504 31.1645C44.7085 31.0226 44.4668 30.9305 44.1292 30.9305H42.1037V33.9419H44.2789C44.6855 33.9419 44.9693 33.8383 45.119 33.6542ZM44.5473 31.7745C44.5473 31.9087 44.5052 32.0276 44.4323 32.0967C44.3594 32.1773 44.2366 32.2118 44.1062 32.2118H42.5717V31.3448H44.0179C44.1944 31.3448 44.3287 31.3793 44.4207 31.4637C44.5013 31.5404 44.5473 31.6517 44.5473 31.7745ZM44.7008 33.3626C44.6049 33.4701 44.44 33.5238 44.1983 33.5238H42.5717V32.63H44.2098C44.4323 32.63 44.5858 32.6759 44.6778 32.7642C44.7622 32.8448 44.7968 32.9483 44.7968 33.0673C44.7968 33.19 44.7699 33.2936 44.7008 33.3626Z" fill="#C9CED3"/>
<path d="M48.7742 33.9419V33.5008H46.4342V32.6414H48.6821V32.2041H46.4342V31.3678H48.7473V30.9305H45.9661V33.9419H48.7742Z" fill="#C9CED3"/>
<path d="M52.5218 33.0519C52.5218 32.5609 52.1963 32.3077 51.3944 32.2157C51.2598 32.1965 50.9681 32.1658 50.8109 32.1466C50.0667 32.0584 49.8404 31.9587 49.8404 31.7017C49.8404 31.4523 50.0897 31.3103 50.8416 31.3103C51.4244 31.3103 51.724 31.4255 51.8739 31.6325C51.9162 31.6901 51.939 31.7592 51.9503 31.8129H52.4639C52.4494 31.7246 52.4143 31.6019 52.3606 31.5021C52.1539 31.1454 51.7282 30.8883 50.8416 30.8883C49.7828 30.8845 49.3455 31.2682 49.3455 31.7438C49.3455 32.2195 49.6869 32.4612 50.5731 32.5648C50.7266 32.5839 50.9988 32.6146 51.1332 32.63C51.8201 32.7143 52.0351 32.818 52.0351 33.1057C52.0351 33.3704 51.7891 33.5622 51.0027 33.5622C50.3583 33.5622 50.0129 33.4471 49.8749 33.2246C49.8327 33.1632 49.8059 33.0673 49.802 33.0021H49.2956C49.3072 33.1402 49.3455 33.2898 49.4145 33.4087C49.6141 33.7732 50.0821 33.9842 50.9874 33.9842C52.0692 33.9842 52.5218 33.635 52.5218 33.0519Z" fill="#C9CED3"/>
<path d="M55.9617 31.3678V30.9305H52.7625V31.3678H54.1203V33.9419H54.6039V31.3678H55.9617Z" fill="#C9CED3"/>
<path d="M22.1333 36.5593C22.1333 36.2524 22.0719 36.0452 21.9683 35.888C21.8226 35.6616 21.5386 35.5427 21.0437 35.5427H19.1411V38.5541H19.6167V37.572C19.6167 37.572 20.9594 37.572 21.0246 37.572C21.4888 37.5682 21.8072 37.4608 21.976 37.2153C22.0834 37.0657 22.1333 36.8508 22.1333 36.5593ZM21.6499 36.5593C21.6499 36.7127 21.6345 36.8278 21.5847 36.9046C21.4964 37.0464 21.3161 37.1347 20.944 37.1347C20.9095 37.1347 19.6167 37.1347 19.6167 37.1347V35.9724H20.9594C21.3085 35.9724 21.4888 36.0529 21.5847 36.2102C21.6307 36.2792 21.6499 36.4059 21.6499 36.5593Z" fill="#C9CED3"/>
<path d="M25.6055 38.5541V38.1129H23.2654V37.2536H25.5134V36.8163H23.2654V35.98H25.5786V35.5427H22.7974V38.5541H25.6055Z" fill="#C9CED3"/>
<path d="M29.2649 36.3943C29.2649 36.1795 29.219 36.0222 29.1384 35.8956C28.9964 35.6846 28.7241 35.5427 28.2714 35.5427H26.3226V38.5541H26.7945V37.2843H28.1679L29.008 38.5541H29.5604L28.6511 37.2037C28.8814 37.1769 29.0617 37.0464 29.1576 36.8777C29.2266 36.7626 29.2649 36.5938 29.2649 36.3943ZM28.7893 36.4326C28.7893 36.5171 28.7701 36.6207 28.7356 36.6897C28.6742 36.8009 28.5322 36.8585 28.3021 36.8623H26.7983C26.7983 36.8546 26.7983 35.9724 26.7983 35.9724H28.2138C28.5015 35.9724 28.655 36.0414 28.7356 36.1718C28.7701 36.2332 28.7893 36.3367 28.7893 36.4326Z" fill="#C9CED3"/>
<path d="M32.8215 35.98V35.5427H30.1438V38.5541H30.6194V37.2728H32.7218V36.824H30.6194V35.98H32.8215Z" fill="#C9CED3"/>
<path d="M35.0048 35.489C34.3641 35.489 33.923 35.6463 33.6083 35.9762C33.3437 36.2332 33.2286 36.59 33.2286 37.0388C33.2286 37.5298 33.3782 37.8981 33.6544 38.1475C33.9498 38.4429 34.4024 38.5962 35.0048 38.5962C35.6262 38.5962 36.1095 38.4429 36.3973 38.1321C36.6466 37.8789 36.777 37.5184 36.777 37.035C36.777 36.567 36.6658 36.2102 36.4011 35.957C36.098 35.6425 35.6453 35.489 35.0048 35.489ZM35.0048 38.1667C34.5828 38.1667 34.2835 38.0746 34.0572 37.8905C33.8271 37.7025 33.7158 37.4147 33.7158 37.0465C33.7158 36.7012 33.8117 36.4135 33.9958 36.2409C34.2068 36.0414 34.529 35.9225 35.0009 35.9225C35.4881 35.9225 35.7911 36.0376 36.0174 36.237C36.2093 36.4059 36.2937 36.705 36.2937 37.0426C36.2937 37.384 36.2055 37.6757 36.0098 37.852C35.7835 38.063 35.4651 38.1667 35.0048 38.1667Z" fill="#C9CED3"/>
<path d="M40.3764 36.3943C40.3764 36.1795 40.3303 36.0222 40.2498 35.8956C40.1078 35.6846 39.8354 35.5427 39.3828 35.5427H37.4341V38.5541H37.9059V37.2843H39.2792L40.1194 38.5541H40.6717L39.7626 37.2037C39.9927 37.1769 40.173 37.0464 40.2689 36.8777C40.3381 36.7626 40.3764 36.5938 40.3764 36.3943ZM39.9006 36.4326C39.9006 36.5171 39.8815 36.6207 39.847 36.6897C39.7856 36.8009 39.6437 36.8585 39.4135 36.8623H37.9097C37.9097 36.8546 37.9097 35.9724 37.9097 35.9724H39.3253C39.613 35.9724 39.7664 36.0414 39.847 36.1718C39.8815 36.2332 39.9006 36.3367 39.9006 36.4326Z" fill="#C9CED3"/>
<path d="M44.9648 38.5541V35.5427H44.3434L43.1043 38.0209L41.8882 35.5427H41.2552V38.5541H41.7118V36.237L42.8472 38.5541H43.3459L44.5083 36.237V38.5541H44.9648Z" fill="#C9CED3"/>
<path d="M46.3119 37.8099H48.1878L48.5714 38.5541H49.0855L47.5586 35.5427H46.9948L45.4181 38.5541H45.9206L46.3119 37.8099ZM47.9883 37.384H46.5191L47.129 36.2294L47.2633 35.9493L47.3975 36.2294L47.9883 37.384Z" fill="#C9CED3"/>
<path d="M52.5414 38.5541V35.5427H52.0847V37.8827L50.0903 35.5427H49.5494V38.5541H50.0136V36.1987L52.0237 38.5541H52.5414Z" fill="#C9CED3"/>
<path d="M56.6799 37.4301H56.1808C56.1653 37.5682 56.1115 37.7063 56.0154 37.8099C55.8088 38.0516 55.4791 38.1551 54.9728 38.1551C54.5471 38.1551 54.0903 38.0362 53.8713 37.7255C53.7566 37.5798 53.6832 37.3649 53.6832 37.0426C53.6832 36.7549 53.7338 36.5401 53.8444 36.3943C54.0283 36.099 54.4158 35.9455 54.9614 35.9455C55.4905 35.9455 55.8243 36.0912 56.001 36.2946C56.1002 36.402 56.158 36.5286 56.1766 36.6782H56.6757C56.6602 36.5094 56.6065 36.3099 56.4918 36.1412C56.2459 35.7767 55.7933 35.489 54.9645 35.489C54.1751 35.489 53.7028 35.7422 53.4414 36.1219C53.273 36.3406 53.1882 36.6475 53.1882 37.0388C53.1882 37.4761 53.2926 37.7984 53.4724 38.0247C53.7338 38.3815 54.236 38.5962 54.9955 38.5962C55.7747 38.5962 56.2386 38.3623 56.4691 37.9902C56.5993 37.8099 56.6644 37.595 56.6799 37.4301Z" fill="#C9CED3"/>
<path d="M60.1126 38.5541V38.1129H57.7721V37.2536H60.0206V36.8163H57.7721V35.98H60.0857V35.5427H57.304V38.5541H60.1126Z" fill="#C9CED3"/>
<path d="M25.0297 41.5455L25.6034 43.3113H27.46L25.9581 44.4026L26.5318 46.1683L25.0297 45.0771L23.5277 46.1683L24.1015 44.4026L22.5994 43.3113H24.456L25.0297 41.5455Z" fill="#C9CED3"/>
<path d="M31.653 41.5457L32.2384 43.3113H34.1329L32.6002 44.4026L33.1856 46.1684L31.653 45.0771L30.1204 46.1684L30.7057 44.4026L29.1731 43.3113H31.0676L31.653 41.5457Z" fill="#C9CED3"/>
<path d="M38.2239 41.5457L38.8093 43.3113H40.7038L39.1711 44.4026L39.7566 46.1684L38.2239 45.0771L36.6912 46.1684L37.2766 44.4026L35.744 43.3113H37.6385L38.2239 41.5457Z" fill="#C9CED3"/>
<path d="M44.7949 41.5457L45.3803 43.3113H47.2748L45.7422 44.4026L46.3275 46.1684L44.7949 45.0771L43.2623 46.1684L43.8476 44.4026L42.315 43.3113H44.2095L44.7949 41.5457Z" fill="#C9CED3"/>
<path d="M51.4181 41.5457L51.9916 43.3113H53.8485L52.3461 44.4026L52.9196 46.1684L51.4181 45.0771L49.916 46.1684L50.4898 44.4026L48.9877 43.3113H50.8443L51.4181 41.5457Z" fill="#C9CED3"/>
<path d="M28.2478 11.7554L28.6815 13.0904H30.0853L28.9497 13.9156L29.3835 15.2505L28.2478 14.4255L27.1121 15.2505L27.5459 13.9156L26.4103 13.0904H27.8141L28.2478 11.7554Z" fill="#C9CED3"/>
<path d="M33.2556 11.7535L33.6983 13.0886H35.1306L33.9718 13.9137L34.4144 15.2487L33.2556 14.4236L32.0967 15.2487L32.5394 13.9137L31.3805 13.0886H32.8129L33.2556 11.7535Z" fill="#C9CED3"/>
<path d="M38.2236 11.7535L38.6662 13.0886H40.0986L38.9398 13.9137L39.3824 15.2487L38.2236 14.4236L37.0647 15.2487L37.5074 13.9137L36.3485 13.0886H37.7809L38.2236 11.7535Z" fill="#C9CED3"/>
<path d="M43.1924 11.7535L43.635 13.0886H45.0674L43.9086 13.9137L44.3512 15.2487L43.1924 14.4236L42.0335 15.2487L42.4762 13.9137L41.3173 13.0886H42.7497L43.1924 11.7535Z" fill="#C9CED3"/>
<path d="M48.1994 11.7535L48.6332 13.0886H50.037L48.9014 13.9137L49.3351 15.2487L48.1994 14.4236L47.0638 15.2487L47.4976 13.9137L46.3619 13.0886H47.7656L48.1994 11.7535Z" fill="#C9CED3"/>
<path fill-rule="evenodd" clip-rule="evenodd" d="M8.25315 35.7847C6.3388 23.8075 11.9258 11.9574 23.1107 6.86865L23.214 7.09557C12.1416 12.1331 6.60075 23.8672 8.49929 35.7454C10.5997 48.8866 21.2011 56.7678 34.1834 57.1478L34.1761 57.397C21.0926 57.014 10.3752 49.0615 8.25315 35.7847Z" fill="#C9CED3"/>
<path d="M20.6856 9.9254C18.6186 9.97252 16.1995 11.1381 14.772 12.8311C15.9168 13.8941 17.7586 13.5011 19.084 13.2837C20.9758 12.9735 22.9874 12.3725 24.7725 11.5218C24.0386 9.95939 22.0614 9.89409 20.6856 9.9254Z" fill="#C9CED3"/>
<path d="M19.06 7.37552C17.8357 9.28264 16.3767 11.1781 14.7888 12.8472C13.4604 11.6002 14.2623 9.52495 14.8045 8.23442C15.7866 5.89599 18.1415 3.87944 20.6034 2.84766C21.2791 4.38495 19.8115 6.20496 19.06 7.37552Z" fill="#C9CED3"/>
<path d="M14.7042 15.2734C12.7688 15.9614 11.1057 17.8981 10.2706 19.8424C11.6623 20.4895 13.2445 19.555 14.4019 18.9328C15.9912 18.0785 17.6126 16.8997 18.8883 15.5355C17.7356 14.3192 15.9854 14.8181 14.7042 15.2734Z" fill="#C9CED3"/>
<path d="M12.3582 13.3677C11.9345 15.5429 11.2242 17.7974 10.2913 19.8523C8.66298 19.0843 8.72498 16.8848 8.79473 15.485C8.91377 13.0958 10.2504 10.3713 12.1113 8.63989C13.2506 9.86129 12.6281 11.9821 12.3582 13.3677Z" fill="#C9CED3"/>
<path d="M10.9802 22.1779C9.36751 23.4502 8.38998 25.8079 8.16357 27.9134C9.68919 28.0885 10.9086 26.7001 11.816 25.7476C13.0513 24.4507 14.2208 22.824 14.9634 21.1222C13.5091 20.3288 12.0307 21.3492 10.9802 22.1779Z" fill="#C9CED3"/>
<path d="M8.18609 21.1039C8.47367 23.3005 8.47429 25.6768 8.18661 27.9162C6.41237 27.6983 5.82389 25.568 5.47628 24.2316C4.87612 21.9248 5.2785 18.9451 6.44761 16.7025C7.90864 17.5113 8.00236 19.6999 8.18609 21.1039Z" fill="#C9CED3"/>
<path d="M9.71458 29.7145C8.43842 31.5839 7.98964 34.5135 8.56355 36.8683C10.25 36.469 11.0859 34.5597 11.7572 33.2113C12.6493 31.4192 13.4033 29.3284 13.6732 27.2772C11.8441 26.8965 10.5552 28.483 9.71458 29.7145Z" fill="#C9CED3"/>
<path d="M6.36451 29.5255C7.35878 31.8275 8.13471 34.3611 8.58876 36.8626C6.65467 37.2781 5.26266 35.2472 4.45398 33.9006C3.01423 31.5034 2.5948 28.1803 3.12222 25.3126C4.89242 25.6676 5.75866 28.1233 6.36451 29.5255Z" fill="#C9CED3"/>
<path d="M10.6073 37.848C9.92209 40.1157 10.3984 43.1987 11.7857 45.3307C13.3103 44.338 13.5213 42.1534 13.7374 40.5869C14.0223 38.5199 14.1564 36.23 13.8025 34.0865C11.8525 34.3355 11.065 36.333 10.6073 37.848Z" fill="#C9CED3"/>
<path d="M7.21855 38.8188C8.92934 40.7818 10.5074 43.02 11.8089 45.3159C10.0438 46.4179 7.97247 44.9124 6.71625 43.8471C4.48766 41.9572 3.04058 38.7451 2.69751 35.7168C4.55214 35.4676 6.18656 37.6345 7.21855 38.8188Z" fill="#C9CED3"/>
<path d="M14.2028 45.5665C14.3498 48.2062 16.0683 50.976 18.3565 52.5526C19.4616 51.0397 18.7689 48.7216 18.392 47.1035C17.8845 44.9249 17.1822 42.6564 16.1384 40.6434C14.3183 41.6053 14.1059 43.8282 14.2028 45.5665Z" fill="#C9CED3"/>
<path d="M11.1252 47.7963C13.6043 49.1738 16.0762 50.7994 18.3745 52.5291C16.9981 54.3415 14.247 53.6188 12.5416 53.0362C9.53623 52.0096 6.8569 49.3033 5.45746 46.2966C7.2318 45.3826 9.66075 46.9825 11.1252 47.7963Z" fill="#C9CED3"/>
<path d="M21.2633 52.0153C22.7512 54.7307 26.1419 56.5021 29.3349 56.9286C29.6785 54.9545 27.5425 52.9999 26.3786 51.7213C24.7214 49.9009 22.9946 48.0117 21.0586 46.4377C19.6081 48.1219 20.3749 50.3941 21.2633 52.0153Z" fill="#C9CED3"/>
<path d="M19.1384 55.4567C22.5206 55.8083 25.9602 56.3145 29.3404 56.8983C29.0177 59.389 25.0651 59.791 23.2707 59.938C19.5915 60.2396 15.4987 58.7606 12.6489 56.2709C14.0643 54.6054 17.3368 55.2694 19.1384 55.4567Z" fill="#C9CED3"/>
<path d="M25.6529 4.77811C23.3822 5.42591 20.7243 6.65485 19.4112 8.92343C21.7946 8.66365 24.137 7.8156 26.4278 7.16945C28.9938 6.4456 31.6957 5.90424 34.18 4.90511C31.4592 3.8166 28.252 4.03659 25.6529 4.77811Z" fill="#C9CED3"/>
<path fill-rule="evenodd" clip-rule="evenodd" d="M69.5831 35.7454C71.4814 23.8672 65.9406 12.1333 54.8685 7.09557L54.9718 6.86865C66.1566 11.9575 71.7438 23.8075 69.8291 35.7847C67.7076 49.0615 56.9899 57.014 43.9065 57.397L43.8992 57.1478C56.8814 56.7678 67.4824 48.8866 69.5831 35.7454Z" fill="#C9CED3"/>
<path d="M57.397 9.9254C59.4637 9.97252 61.8827 11.1381 63.3108 12.8311C62.1658 13.8941 60.3234 13.5011 58.9987 13.2837C57.1066 12.9735 55.0947 12.3725 53.3102 11.5218C54.0438 9.95939 56.0206 9.89409 57.397 9.9254Z" fill="#C9CED3"/>
<path d="M59.0224 7.37552C60.2469 9.28264 61.706 11.1781 63.2932 12.8472C64.6221 11.6002 63.8202 9.52495 63.2777 8.23442C62.296 5.89599 59.9411 3.87944 57.4786 2.84766C56.8028 4.38495 58.2712 6.20496 59.0224 7.37552Z" fill="#C9CED3"/>
<path d="M63.379 15.2734C65.3144 15.9614 66.977 17.8981 67.812 19.8424C66.4201 20.4895 64.838 19.555 63.6807 18.9328C62.0914 18.0785 60.4701 16.8997 59.195 15.5355C60.3472 14.3192 62.0976 14.8181 63.379 15.2734Z" fill="#C9CED3"/>
<path d="M65.7247 13.3677C66.1483 15.5429 66.8582 17.7974 67.7913 19.8523C69.4199 19.0843 69.3579 16.8848 69.2876 15.485C69.1688 13.0958 67.8327 10.3713 65.9716 8.63989C64.8319 9.86129 65.455 11.9821 65.7247 13.3677Z" fill="#C9CED3"/>
<path d="M67.1021 22.1779C68.7151 23.4502 69.6927 25.8079 69.919 27.9134C68.3938 28.0885 67.1744 26.7001 66.2672 25.7476C65.0313 24.4507 63.8616 22.824 63.1196 21.1222C64.5735 20.3288 66.0522 21.3492 67.1021 22.1779Z" fill="#C9CED3"/>
<path d="M69.8973 21.1039C69.609 23.3002 69.609 25.6768 69.8962 27.9162C71.6705 27.6983 72.2595 25.568 72.6067 24.2316C73.207 21.9248 72.804 18.9451 71.6353 16.7025C70.1742 17.5113 70.0802 19.6999 69.8973 21.1039Z" fill="#C9CED3"/>
<path d="M68.3679 29.7145C69.6441 31.5839 70.0926 34.5135 69.5191 36.8683C67.8327 36.469 66.9967 34.5598 66.325 33.2113C65.4333 31.4192 64.6789 29.3284 64.4092 27.2772C66.2382 26.8965 67.5278 28.483 68.3679 29.7145Z" fill="#C9CED3"/>
<path d="M71.718 29.5255C70.7239 31.8275 69.9479 34.3611 69.4943 36.8626C71.4276 37.2781 72.8195 35.2472 73.6286 33.9006C75.0681 31.5034 75.4876 28.1803 74.9606 25.3126C73.1905 25.6676 72.3235 28.1233 71.718 29.5255Z" fill="#C9CED3"/>
<path d="M67.4751 37.848C68.1602 40.1157 67.6849 43.1987 66.2971 45.3307C64.7729 44.338 64.5611 42.1534 64.3451 40.5869C64.061 38.5199 63.9266 36.23 64.28 34.0865C66.2299 34.3355 67.0173 36.333 67.4751 37.848Z" fill="#C9CED3"/>
<path d="M70.8634 38.8188C69.1533 40.7819 67.5754 43.02 66.2734 45.3159C68.0383 46.4179 70.1101 44.9124 71.3667 43.8471C73.5945 41.9572 75.0422 38.7451 75.3853 35.7168C73.5305 35.4676 71.8957 37.6345 70.8634 38.8188Z" fill="#C9CED3"/>
<path d="M63.8791 45.5665C63.7324 48.2062 62.014 50.976 59.7262 52.5526C58.6205 51.0397 59.3139 48.7217 59.69 47.1035C60.1974 44.9249 60.9 42.6564 61.9437 40.6434C63.7644 41.6053 63.9763 43.8282 63.8791 45.5665Z" fill="#C9CED3"/>
<path d="M66.9574 47.7963C64.4785 49.1738 62.0068 50.7994 59.7086 52.5291C61.085 54.3415 63.8358 53.6188 65.5408 53.0362C68.5467 52.0096 71.2261 49.3033 72.6253 46.2966C70.851 45.3826 68.4217 46.9825 66.9574 47.7963Z" fill="#C9CED3"/>
<path d="M56.8194 52.0153C55.3314 54.7307 51.941 56.5021 48.7476 56.9286C48.4039 54.9545 50.5398 52.9999 51.7044 51.7213C53.3608 49.9009 55.0875 48.0117 57.024 46.4377C58.4748 48.1219 57.707 50.3941 56.8194 52.0153Z" fill="#C9CED3"/>
<path d="M58.9439 55.4567C55.5618 55.8083 52.1229 56.3145 48.742 56.8983C49.0648 59.389 53.0177 59.791 54.8116 59.938C58.4913 60.2396 62.5843 58.7606 65.4332 56.2709C64.0186 54.6054 60.746 55.2694 58.9439 55.4567Z" fill="#C9CED3"/>
<path d="M52.4298 4.77811C54.7 5.42591 57.3588 6.65485 58.6711 8.92343C56.2882 8.66365 53.9457 7.8156 51.6548 7.16945C49.0888 6.4456 46.3869 5.90424 43.9026 4.90511C46.6235 3.8166 49.8306 4.03659 52.4298 4.77811Z" fill="#C9CED3"/>
<path d="M40.5179 3.60415L39.3529 1.03333L38.2097 3.55631L35.551 1.90794L37.2594 5.49805H41.5081L43.1548 1.90794L40.5179 3.60415Z" fill="#C9CED3"/>
<path d="M41.4808 6.05591H37.2254V6.68386H41.4808V6.05591Z" fill="#C9CED3"/>
<path d="M39.6572 54.6342L40.3429 56.7444H42.5618L40.7667 58.0486L41.4523 60.1589L39.6572 58.8547L37.8621 60.1589L38.5478 58.0486L36.7527 56.7444H38.9716L39.6572 54.6342Z" fill="#C9CED3"/>
</svg>
