<svg width="173" height="62" viewBox="0 0 173 62" fill="none" xmlns="http://www.w3.org/2000/svg">
<path d="M18.0598 26.691C18.0117 27.8213 17.9877 29.2523 17.9877 30.9838C17.9877 32.7153 18.0117 34.1582 18.0598 35.3126C18.1078 36.443 18.204 37.3447 18.3483 38.0182C18.5166 38.6915 18.7451 39.1604 19.0338 39.425C19.3464 39.6895 19.7552 39.8218 20.2603 39.8218C20.7653 39.8218 21.1621 39.6895 21.4507 39.425C21.7633 39.1604 21.9918 38.6915 22.1361 38.0182C22.3045 37.3447 22.4126 36.443 22.4608 35.3126C22.5089 34.1582 22.5329 32.7153 22.5329 30.9838C22.5329 29.2523 22.5089 27.8213 22.4608 26.691C22.4126 25.5366 22.3045 24.6227 22.1361 23.9494C21.9918 23.276 21.7633 22.8071 21.4507 22.5426C21.1621 22.2779 20.7653 22.1456 20.2603 22.1456C19.7552 22.1456 19.3464 22.2779 19.0338 22.5426C18.7451 22.8071 18.5166 23.276 18.3483 23.9494C18.204 24.6227 18.1078 25.5366 18.0598 26.691Z" fill="#C9CED3"/>
<path fill-rule="evenodd" clip-rule="evenodd" d="M19.3378 4.18601C10.6396 4.37214 3.7257 11.5499 3.86527 20.2489L4.03676 30.9372L3.86527 41.6254C3.7257 50.3246 10.6396 57.5023 19.3378 57.6883L30.0277 57.9171L40.7175 57.6883C49.4157 57.5023 56.3298 50.3246 56.1902 41.6254L56.0187 30.9372L56.1902 20.2489C56.3298 11.5499 49.4157 4.37214 40.7175 4.18601L30.0277 3.9574L19.3378 4.18601ZM30.397 44.5473L26.3568 48.0465L22.6773 44.0784C22.3886 44.1265 22.1 44.1627 21.8115 44.1867C21.5469 44.2347 21.2462 44.2589 20.9096 44.2589H20.2603C18.5528 44.2589 17.1098 44.0304 15.9314 43.5734C14.753 43.1165 13.8031 42.3589 13.0816 41.3008C12.3602 40.2186 11.8431 38.8357 11.5304 37.1523C11.2178 35.4448 11.0615 33.3885 11.0615 30.9837C11.0615 28.5788 11.2178 26.5346 11.5304 24.8511C11.8431 23.1436 12.3602 21.7609 13.0816 20.7027C13.8031 19.6204 14.753 18.8389 15.9314 18.3579C17.1098 17.8528 18.5528 17.6003 20.2603 17.6003C21.9678 17.6003 23.4107 17.8528 24.5891 18.3579C25.7675 18.8389 26.7175 19.6204 27.439 20.7027C28.1604 21.7609 28.6775 23.1436 28.9902 24.8511C29.3028 26.5346 29.4591 28.5788 29.4591 30.9837C29.4591 33.4607 29.2908 35.553 28.954 37.2605C28.6174 38.968 28.0643 40.3629 27.2947 41.4451L30.397 44.5473ZM41.7842 27.3763V25.9334C41.7842 24.4663 41.6399 23.4683 41.3513 22.9393C41.0628 22.4102 40.5938 22.1456 39.9444 22.1456C39.4394 22.1456 39.0306 22.2779 38.718 22.5425C38.4293 22.807 38.2009 23.2759 38.0325 23.9494C37.8882 24.6227 37.7921 25.5366 37.7439 26.691C37.6958 27.8212 37.6718 29.2522 37.6718 30.9837C37.6718 32.7152 37.6958 34.1581 37.7439 35.3125C37.7921 36.4429 37.8882 37.3447 38.0325 38.0181C38.2009 38.6914 38.4293 39.1603 38.718 39.425C39.0306 39.6894 39.4394 39.8218 39.9444 39.8218C40.3532 39.8218 40.69 39.7256 40.9545 39.5331C41.2191 39.3167 41.4234 38.968 41.5677 38.487C41.712 38.0061 41.8082 37.3687 41.8564 36.5751C41.9285 35.7575 41.9645 34.7354 41.9645 33.5088H48.4578V35.4208C48.4578 37.2245 48.2173 38.7035 47.7363 39.8578C47.2554 41.0122 46.6181 41.9261 45.8245 42.5994C45.0308 43.2488 44.117 43.6816 43.0828 43.8981C42.0728 44.1385 41.0266 44.2589 39.9444 44.2589C38.0686 44.2589 36.5295 44.0304 35.327 43.5734C34.1246 43.1165 33.1866 42.3589 32.5132 41.3008C31.8398 40.2186 31.3708 38.8357 31.1064 37.1523C30.8659 35.4448 30.7456 33.3885 30.7456 30.9837C30.7456 28.5306 30.8899 26.4505 31.1785 24.743C31.4911 23.0355 32.0083 21.6526 32.7297 20.5945C33.4511 19.5363 34.4011 18.7787 35.5795 18.3217C36.7578 17.8408 38.2129 17.6003 39.9444 17.6003C41.4596 17.6003 42.7461 17.7928 43.8043 18.1776C44.8624 18.5624 45.7162 19.1155 46.3656 19.8369C47.0389 20.5344 47.5199 21.3881 47.8085 22.3982C48.1211 23.3841 48.2774 24.5025 48.2774 25.753V27.3763H41.7842Z" fill="#C9CED3"/>
<path fill-rule="evenodd" clip-rule="evenodd" d="M87.7151 22.3416L93.5961 28.4447L99.4772 22.3416H109.695L98.6973 32.8041L109.695 43.2664H99.4772L93.5961 37.1478L87.7151 43.2664H77.4818L88.4796 32.8041L77.4818 22.3416H87.7151ZM87.1482 32.8041L75.1868 21.4249H88.1061L93.5961 27.1222L99.0862 21.4249H111.544V21.4094H132.659C137.487 21.36 141.573 25.3974 141.508 30.2417C141.506 31.9842 141.035 33.5904 140.092 35.02C139.382 36.1021 138.483 36.9924 137.405 37.6693L141.907 43.45V39.7011C141.907 36.7639 144.102 34.8913 146.627 33.6495C149.177 32.3958 152.394 31.6125 155.074 30.9788L155.078 30.9778L155.108 30.9702C156.76 30.564 158.166 30.2183 159.167 29.8453C159.674 29.6563 160.006 29.4852 160.196 29.3398C160.22 29.3214 160.239 29.305 160.257 29.2909C160.199 29.2376 160.08 29.1581 159.846 29.0664C159.302 28.8531 158.372 28.6924 156.963 28.692C155.458 28.7076 154.178 28.83 153.305 29.1363C152.875 29.2873 152.615 29.4594 152.468 29.6208C152.344 29.7595 152.27 29.924 152.277 30.182L152.299 31.1207H142.234V30.204C142.234 28.3221 142.604 26.7486 143.342 25.4594C144.085 24.1644 145.167 23.2189 146.486 22.5407C149.074 21.2101 152.64 20.88 156.616 20.88C160.687 20.88 164.066 21.3498 166.459 22.5591C167.67 23.172 168.654 23.9877 169.331 25.0484C170.009 26.1119 170.341 27.3638 170.341 28.7872C170.341 31.4215 168.752 33.0993 166.804 34.1929C164.912 35.2546 162.531 35.8576 160.553 36.34H169.998V44.152H142.453L142.465 44.1676H131.432L127.485 39.0609H121.555V44.1676H111.973L111.99 44.1832H99.0855L93.5961 38.472L88.1068 44.1832H75.1868L87.1482 32.8041ZM111.544 43.7587V21.8493L100.029 32.8041L111.544 43.7587ZM127.937 38.1442L131.884 43.2508H140.588L136.017 37.3812C136.303 37.2487 136.577 37.102 136.839 36.9416C137.839 36.3292 138.67 35.5157 139.324 34.5166C140.167 33.2399 140.588 31.8076 140.588 30.2351C140.651 25.9069 136.985 22.2794 132.664 22.3261H112.462V43.2508H120.636V38.1442H127.937ZM155.742 37.2567C156.029 36.9067 156.547 36.6091 157.236 36.34C158.047 36.0224 159.092 35.7443 160.266 35.4664C164.291 34.4854 169.423 33.1465 169.423 28.7872C169.423 23.6806 164.681 21.7967 156.616 21.7967C149.032 21.7967 143.654 23.0322 143.187 29.2872C143.164 29.5816 143.152 29.887 143.152 30.204H151.359C151.358 30.1695 151.358 30.1354 151.359 30.1019C151.404 28.242 153.971 27.8058 156.959 27.7752C159.875 27.7752 161.217 28.4291 161.217 29.3166C161.217 30.412 158.629 31.0488 155.378 31.8481L155.29 31.8698C149.892 33.1465 142.825 34.9214 142.825 39.7011V43.2352H169.079V37.2567H155.742ZM160.308 29.3612C160.308 29.3612 160.303 29.3554 160.3 29.3419C160.308 29.3541 160.308 29.3612 160.308 29.3612ZM131.481 30.2351C131.481 29.7451 131.095 29.3615 130.605 29.3615H121.555V31.0933H130.605C130.869 31.0933 131.053 31.0132 131.218 30.848C131.407 30.6599 131.481 30.4718 131.481 30.2351ZM132.399 30.2351C132.399 29.2387 131.603 28.4447 130.605 28.4447H120.636V32.0099H130.605C131.103 32.0099 131.526 31.8387 131.868 31.4963C132.227 31.1381 132.399 30.7178 132.399 30.2351Z" fill="#C9CED3"/>
<path d="M78.2383 58.3622H82.1534V53.0016L86.0758 58.3622H88.0333L91.9558 53.0016V58.3622H95.8709V48.3137H90.9771L87.0546 53.338L83.1396 48.3137H78.2383V58.3622Z" fill="#C9CED3"/>
<path d="M104.119 48.067C100.339 48.0745 97.2456 49.166 97.2605 52.9716V53.7043C97.2456 57.5024 100.339 58.6015 104.119 58.6089C107.892 58.6015 110.985 57.5024 110.971 53.7043V52.9716C110.971 49.1735 107.9 48.067 104.119 48.067ZM107.055 53.4576C107.078 55.1024 105.718 55.4015 104.119 55.4239C102.513 55.4015 101.153 55.1024 101.175 53.4576V53.2109C101.153 51.5734 102.513 51.2744 104.119 51.252C105.718 51.2744 107.078 51.5734 107.055 53.2109V53.4576Z" fill="#C9CED3"/>
<path d="M121.938 53.3529C121.938 54.3622 121.363 55.1921 120.347 55.1921H116.058V51.5137H120.347C121.363 51.5137 121.938 52.336 121.938 53.3529ZM112.143 48.3287V58.3771H121.079C123.836 58.4145 125.883 56.0819 125.861 53.3529C125.883 50.609 123.836 48.2912 121.079 48.3287H112.143Z" fill="#C9CED3"/>
<path d="M136.761 53.4651C136.784 55.1174 135.425 55.4015 133.825 55.4239C132.219 55.4015 130.867 55.1174 130.882 53.4651V48.3137H126.967V53.7118C126.952 57.5099 130.06 58.6015 133.825 58.6089C137.591 58.6015 140.699 57.5099 140.684 53.7118V48.3137H136.761V53.4651Z" fill="#C9CED3"/>
<path d="M142.447 48.3137V58.3622H154.2V55.1773H146.362V48.3137H142.447Z" fill="#C9CED3"/>
<path d="M155.537 58.3771H167.29V55.7978H159.452V54.5117H167.29V52.1866H159.452V50.9005H167.29V48.3287H155.537V58.3771Z" fill="#C9CED3"/>
<path d="M80.4925 10.0329V7.91527H86.2953C86.5764 7.91527 86.8211 8.01698 87.0206 8.22963C87.2292 8.43317 87.3289 8.68275 87.3289 8.97864C87.3289 9.26542 87.2292 9.51501 87.0206 9.72778C86.8211 9.9312 86.5764 10.0329 86.2953 10.0329H80.4925ZM75.7416 4.28115V16.7094H80.4925V13.6763H87.4831C89.9946 13.7133 92.1253 11.5402 92.089 8.97864C92.1253 6.40801 89.9946 4.25332 87.4831 4.28115H75.7416Z" fill="#C9CED3"/>
<path d="M101.546 3.9574C96.9579 3.96663 93.2042 5.31678 93.2223 10.0236V10.9299C93.2042 15.6275 96.9579 16.9868 101.546 16.996C106.124 16.9868 109.878 15.6275 109.86 10.9299V10.0236C109.86 5.32601 106.133 3.9574 101.546 3.9574ZM105.108 10.6246C105.136 12.659 103.486 13.0289 101.546 13.0568C99.5963 13.0289 97.9462 12.659 97.9733 10.6246V10.3195C97.9462 8.29436 99.5963 7.92447 101.546 7.89677C103.486 7.92447 105.136 8.29436 105.108 10.3195V10.6246Z" fill="#C9CED3"/>
<path d="M128.383 12.1505L125.563 4.28113H120.214L117.386 12.1505L114.565 4.28113H109.216L114.565 16.7094H120.214L122.889 10.4952L125.563 16.7094H131.212L136.562 4.28113H131.212L128.383 12.1505Z" fill="#C9CED3"/>
<path d="M136.925 16.7094H151.186V13.5191H141.675V11.9285H151.186V9.05262H141.675V7.46212H151.186V4.28113H136.925V16.7094Z" fill="#C9CED3"/>
<path d="M153.716 4.27175V16.7001H158.467V13.667H162.71L165.004 16.7001H170.063L167.406 13.2139C168.204 12.8347 168.848 12.2614 169.328 11.5124C169.819 10.7542 170.063 9.90346 170.063 8.96937C170.1 6.39861 167.968 4.24405 165.458 4.27175H153.716ZM164.26 7.906C164.841 7.906 165.304 8.3776 165.304 8.96937C165.304 9.25602 165.203 9.50574 164.995 9.71838C164.796 9.92193 164.55 10.0236 164.26 10.0236H158.467V7.906H164.26Z" fill="#C9CED3"/>
</svg>
