<svg xmlns="http://www.w3.org/2000/svg" width="34" height="34" viewBox="0 0 34 34" fill="none"><g clip-path="url(#clip0_2210_2070)"><path d="M27.0642 9.6798C26.5267 9.56232 25.9958 9.90266 25.8783 10.4401C25.8632 10.5099 25.4956 11.9056 24.9603 13.9316L23.9829 13.5296L21.8446 12.6504C21.0982 12.3449 21.0497 11.7015 21.1002 11.3064C21.1706 10.7585 21.1354 10.1987 20.9541 9.67608C20.5769 8.58901 19.7461 7.65666 18.6803 7.12409C18.3485 6.98795 18.1167 6.91192 17.977 6.87121C19.4299 7.04154 20.7805 6.05209 21.0399 4.59414L21.2631 3.27246C21.5313 1.75919 20.5255 0.31366 19.0085 0.0434526C17.4946 -0.225692 16.0499 0.783351 15.7808 2.29788L15.5576 3.61956C15.3182 4.96655 16.091 6.25802 17.3306 6.71615C17.138 6.68441 16.9483 6.66847 16.7624 6.66847C14.9482 6.66847 13.4952 8.12609 13.1658 9.93832L11.418 17.7975C14.9669 18.4403 18.0878 19.0062 19.0554 19.1814L19.2433 18.0087L18.6171 17.8918C16.5532 17.506 15.1613 15.5749 15.4482 13.495L15.7729 11.1416C15.848 10.5964 16.3507 10.2159 16.8959 10.2909C17.441 10.366 17.8216 10.8687 17.7465 11.4139L17.4218 13.7673C17.2803 14.7919 17.9663 15.7436 18.983 15.9335C20.1118 16.1366 20.4945 16.3139 24.1167 17.1219C23.4751 19.5475 22.7549 22.2688 22.132 24.6241C21.8701 24.0887 21.7492 23.9354 20.6886 22.3361C20.2867 21.7301 19.655 21.3142 18.9394 21.1845L10.9978 19.7459L8.48902 31.7389C8.32526 32.9283 9.25169 34 10.4659 34C11.4408 34 12.2728 33.2961 12.4335 32.3352L15.0214 22.4925L17.3144 25.1275C18.3563 26.3248 18.9666 27.8369 19.0476 29.422L19.1917 32.2628C19.2407 33.2341 20.044 34 21.0219 34C22.0339 34 22.8547 33.1806 22.8547 32.1699V29.694L26.1077 17.3699C26.61 17.2186 27.0225 16.816 27.1611 16.2715C27.2967 15.7387 27.1379 15.1958 26.7804 14.8216L27.8245 10.8657C27.9421 10.3283 27.6017 9.7974 27.0642 9.6798Z" fill="#FE6C3F"></path><path d="M9.47363 17.3654L10.987 10.5581L7.19656 9.7373L7.18062 9.81434L6.19715 14.6115C5.95344 15.7796 6.72972 16.9092 7.90047 17.1064L9.4723 17.3714C9.47297 17.3694 9.47297 17.3674 9.47363 17.3654Z" fill="#FE6C3F"></path><path d="M13.3702 5.89025L11.8873 5.61002C10.8979 5.42275 9.89184 5.62795 9.05445 6.18775C8.4475 6.5935 7.97867 7.15197 7.68848 7.80475L11.459 8.62154C11.8429 7.51787 12.5155 6.57623 13.3702 5.89025Z" fill="#FE6C3F"></path></g><defs><clipPath id="clip0_2210_2070"><rect width="34" height="34" fill="white"></rect></clipPath></defs></svg>